<?xml version="1.0" encoding="UTF-8" standalone="no"?>
<!-- Created with Inkscape (http://www.inkscape.org/) -->

<svg
   xmlns:dc="http://purl.org/dc/elements/1.1/"
   xmlns:cc="http://creativecommons.org/ns#"
   xmlns:rdf="http://www.w3.org/1999/02/22-rdf-syntax-ns#"
   xmlns:svg="http://www.w3.org/2000/svg"
   xmlns="http://www.w3.org/2000/svg"
   xmlns:sodipodi="http://sodipodi.sourceforge.net/DTD/sodipodi-0.dtd"
   xmlns:inkscape="http://www.inkscape.org/namespaces/inkscape"
   version="1.1"
   id="svg9047"
   xml:space="preserve"
   width="880"
   height="880"
   viewBox="0 0 880 880"
   sodipodi:docname="ram-sheep-silhouette-freesvg.org.svg"
   inkscape:version="0.92.4 (5da689c313, 2019-01-14)"><metadata
     id="metadata9053"><rdf:RDF><cc:Work
         rdf:about=""><dc:format>image/svg+xml</dc:format><dc:type
           rdf:resource="http://purl.org/dc/dcmitype/StillImage" /><dc:title></dc:title></cc:Work></rdf:RDF></metadata><defs
     id="defs9051"><clipPath
       clipPathUnits="userSpaceOnUse"
       id="clipPath9063"><path
         d="M 0,660 H 660 V 0 H 0 Z"
         id="path9061"
         inkscape:connector-curvature="0" /></clipPath></defs><sodipodi:namedview
     pagecolor="#ffffff"
     bordercolor="#666666"
     borderopacity="1"
     objecttolerance="10"
     gridtolerance="10"
     guidetolerance="10"
     inkscape:pageopacity="0"
     inkscape:pageshadow="2"
     inkscape:window-width="1920"
     inkscape:window-height="1018"
     id="namedview9049"
     showgrid="false"
     inkscape:zoom="0.61703622"
     inkscape:cx="529.49153"
     inkscape:cy="408.30508"
     inkscape:window-x="-8"
     inkscape:window-y="-8"
     inkscape:window-maximized="1"
     inkscape:current-layer="g9055" /><g
     id="g9055"
     inkscape:groupmode="layer"
     inkscape:label="ram-sheep-silhouette-freesvg.org"
     transform="matrix(1.3333333,0,0,-1.3333333,0,880)"><g
       id="g9843"><path
         inkscape:connector-curvature="0"
         id="path9065"
         style="fill:#231f20;fill-opacity:1;fill-rule:nonzero;stroke:none"
         d="m 31.141,-25.146 h 3.677 c 1.135,0 2.026,0.106 2.672,0.318 0.646,0.212 1.161,0.51 1.545,0.893 0.54,0.541 0.961,1.269 1.262,2.182 0.302,0.914 0.453,2.022 0.453,3.322 0,1.804 -0.295,3.19 -0.887,4.159 -0.591,0.967 -1.31,1.617 -2.155,1.946 -0.612,0.235 -1.594,0.352 -2.949,0.352 h -3.618 z m -2.282,-2.031 v 17.235 h 5.932 c 1.338,0 2.36,-0.082 3.065,-0.247 0.986,-0.228 1.828,-0.639 2.525,-1.235 0.908,-0.767 1.587,-1.749 2.037,-2.944 0.451,-1.195 0.676,-2.562 0.676,-4.098 0,-1.308 -0.153,-2.469 -0.458,-3.479 -0.305,-1.011 -0.697,-1.848 -1.175,-2.51 -0.477,-0.663 -1,-1.184 -1.568,-1.564 -0.567,-0.38 -1.252,-0.668 -2.055,-0.864 -0.802,-0.196 -1.724,-0.294 -2.766,-0.294 z" /><path
         inkscape:connector-curvature="0"
         id="path9067"
         style="fill:#231f20;fill-opacity:1;fill-rule:nonzero;stroke:none"
         d="m 47.546,-19.739 h 6.969 c -0.094,1.052 -0.36,1.842 -0.799,2.368 -0.674,0.817 -1.548,1.225 -2.621,1.225 -0.971,0 -1.788,-0.326 -2.45,-0.978 -0.662,-0.651 -1.028,-1.523 -1.099,-2.615 m 6.946,-3.407 2.187,-0.281 c -0.345,-1.277 -0.983,-2.268 -1.915,-2.973 -0.931,-0.705 -2.122,-1.058 -3.571,-1.058 -1.824,0 -3.272,0.562 -4.34,1.687 -1.069,1.124 -1.603,2.701 -1.603,4.731 0,2.1 0.54,3.729 1.621,4.889 1.08,1.16 2.482,1.74 4.205,1.74 1.668,0 3.03,-0.568 4.088,-1.704 1.057,-1.136 1.586,-2.735 1.586,-4.794 0,-0.126 -0.004,-0.315 -0.012,-0.565 h -9.317 c 0.079,-1.373 0.467,-2.425 1.165,-3.155 0.698,-0.729 1.569,-1.095 2.612,-1.095 0.776,0 1.439,0.205 1.988,0.616 0.549,0.41 0.984,1.064 1.306,1.962" /><path
         inkscape:connector-curvature="0"
         id="path9069"
         style="fill:#231f20;fill-opacity:1;fill-rule:nonzero;stroke:none"
         d="m 58.489,-23.442 2.094,0.328 c 0.118,-0.842 0.445,-1.489 0.983,-1.937 0.538,-0.448 1.289,-0.673 2.254,-0.673 0.973,0 1.695,0.199 2.166,0.595 0.471,0.397 0.706,0.861 0.706,1.396 0,0.479 -0.207,0.855 -0.62,1.13 -0.289,0.189 -1.01,0.428 -2.163,0.719 -1.554,0.392 -2.631,0.731 -3.231,1.016 -0.6,0.286 -1.055,0.681 -1.365,1.187 -0.31,0.505 -0.464,1.063 -0.464,1.674 0,0.557 0.127,1.071 0.382,1.545 0.254,0.475 0.602,0.868 1.04,1.182 0.329,0.242 0.778,0.448 1.347,0.616 0.568,0.169 1.177,0.253 1.828,0.253 0.979,0 1.84,-0.141 2.58,-0.423 0.741,-0.282 1.288,-0.664 1.641,-1.145 0.352,-0.482 0.595,-1.125 0.729,-1.932 l -2.063,-0.281 c -0.094,0.642 -0.367,1.144 -0.818,1.505 -0.451,0.361 -1.089,0.541 -1.912,0.541 -0.974,0 -1.668,-0.161 -2.084,-0.483 -0.416,-0.321 -0.623,-0.698 -0.623,-1.13 0,-0.275 0.086,-0.523 0.259,-0.742 0.172,-0.228 0.443,-0.417 0.811,-0.566 0.212,-0.079 0.836,-0.259 1.872,-0.541 1.498,-0.401 2.543,-0.728 3.133,-0.982 0.59,-0.255 1.053,-0.625 1.389,-1.11 0.336,-0.487 0.504,-1.089 0.504,-1.81 0,-0.705 -0.206,-1.369 -0.617,-1.992 -0.412,-0.622 -1.006,-1.104 -1.783,-1.445 -0.776,-0.341 -1.654,-0.511 -2.634,-0.511 -1.623,0 -2.861,0.338 -3.711,1.013 -0.852,0.674 -1.395,1.675 -1.63,3.003" /><path
         inkscape:connector-curvature="0"
         id="path9071"
         style="fill:#231f20;fill-opacity:1;fill-rule:nonzero;stroke:none"
         d="m 71.378,-14.692 h 2.109 v -12.484 h -2.109 z m 0,4.75 h 2.109 v -2.438 h -2.109 z" /><path
         inkscape:connector-curvature="0"
         id="path9073"
         style="fill:#231f20;fill-opacity:1;fill-rule:nonzero;stroke:none"
         d="m 78.078,-20.712 c 0,-1.639 0.325,-2.834 0.974,-3.586 0.65,-0.753 1.464,-1.129 2.442,-1.129 0.97,0 1.784,0.374 2.442,1.123 0.657,0.748 0.985,1.922 0.985,3.522 0,1.528 -0.338,2.68 -1.015,3.457 -0.677,0.775 -1.492,1.164 -2.448,1.164 -0.938,0 -1.737,-0.383 -2.394,-1.147 -0.657,-0.764 -0.986,-1.899 -0.986,-3.404 m -1.75,-7.496 2.062,-0.313 c 0.086,-0.632 0.325,-1.093 0.716,-1.382 0.524,-0.391 1.24,-0.586 2.147,-0.586 0.978,0 1.733,0.196 2.265,0.588 0.531,0.392 0.892,0.941 1.079,1.647 0.11,0.432 0.16,1.337 0.153,2.718 -0.924,-1.094 -2.075,-1.641 -3.453,-1.641 -1.715,0 -3.043,0.619 -3.982,1.858 -0.94,1.238 -1.409,2.722 -1.409,4.455 0,1.191 0.216,2.29 0.646,3.297 0.431,1.006 1.056,1.785 1.874,2.333 0.819,0.548 1.78,0.823 2.885,0.823 1.472,0 2.687,-0.594 3.642,-1.781 v 1.5 h 1.953 v -10.789 c 0,-1.944 -0.198,-3.321 -0.593,-4.131 -0.396,-0.811 -1.023,-1.451 -1.881,-1.922 -0.858,-0.47 -1.914,-0.705 -3.168,-0.705 -1.488,0 -2.691,0.335 -3.608,1.005 -0.917,0.67 -1.36,1.678 -1.328,3.026" /><path
         inkscape:connector-curvature="0"
         id="path9075"
         style="fill:#231f20;fill-opacity:1;fill-rule:nonzero;stroke:none"
         d="m 90.104,-27.177 v 12.485 h 1.89 v -1.775 c 0.916,1.37 2.24,2.056 3.97,2.056 0.752,0 1.444,-0.135 2.074,-0.405 0.63,-0.271 1.102,-0.625 1.415,-1.065 0.313,-0.438 0.533,-0.96 0.658,-1.563 0.078,-0.392 0.118,-1.077 0.118,-2.057 v -7.676 h -2.11 v 7.598 c 0,0.862 -0.082,1.507 -0.246,1.934 -0.165,0.427 -0.456,0.769 -0.875,1.023 -0.419,0.256 -0.911,0.383 -1.474,0.383 -0.9,0 -1.677,-0.286 -2.331,-0.859 -0.653,-0.572 -0.98,-1.658 -0.98,-3.257 v -6.822 z" /><path
         inkscape:connector-curvature="0"
         id="path9077"
         style="fill:#231f20;fill-opacity:1;fill-rule:nonzero;stroke:none"
         d="m 105.062,-19.739 h 6.969 c -0.094,1.052 -0.361,1.842 -0.799,2.368 -0.674,0.817 -1.548,1.225 -2.621,1.225 -0.972,0 -1.788,-0.326 -2.45,-0.978 -0.662,-0.651 -1.029,-1.523 -1.099,-2.615 m 6.945,-3.407 2.188,-0.281 c -0.345,-1.277 -0.984,-2.268 -1.915,-2.973 -0.932,-0.705 -2.122,-1.058 -3.571,-1.058 -1.825,0 -3.272,0.562 -4.34,1.687 -1.07,1.124 -1.604,2.701 -1.604,4.731 0,2.1 0.54,3.729 1.621,4.889 1.081,1.16 2.483,1.74 4.205,1.74 1.668,0 3.031,-0.568 4.088,-1.704 1.057,-1.136 1.586,-2.735 1.586,-4.794 0,-0.126 -0.004,-0.315 -0.012,-0.565 h -9.316 c 0.078,-1.373 0.467,-2.425 1.165,-3.155 0.697,-0.729 1.568,-1.095 2.611,-1.095 0.777,0 1.439,0.205 1.989,0.616 0.548,0.41 0.984,1.064 1.305,1.962" /><path
         inkscape:connector-curvature="0"
         id="path9079"
         style="fill:#231f20;fill-opacity:1;fill-rule:nonzero;stroke:none"
         d="m 118.255,-20.948 c 0,-1.6 0.337,-2.795 1.01,-3.588 0.674,-0.791 1.469,-1.188 2.385,-1.188 0.924,0 1.709,0.378 2.355,1.135 0.646,0.757 0.969,1.911 0.969,3.464 0,1.71 -0.329,2.964 -0.987,3.765 -0.657,0.798 -1.468,1.199 -2.431,1.199 -0.94,0 -1.724,-0.385 -2.355,-1.152 -0.63,-0.77 -0.946,-1.981 -0.946,-3.635 m 6.688,-6.229 v 1.571 c -0.791,-1.235 -1.955,-1.852 -3.49,-1.852 -0.995,0 -1.91,0.274 -2.744,0.822 -0.834,0.549 -1.48,1.315 -1.938,2.299 -0.458,0.983 -0.688,2.113 -0.688,3.391 0,1.246 0.208,2.376 0.624,3.39 0.415,1.015 1.037,1.793 1.868,2.334 0.83,0.54 1.758,0.811 2.784,0.811 0.752,0 1.422,-0.158 2.01,-0.476 0.587,-0.317 1.065,-0.73 1.433,-1.239 v 6.184 h 2.11 v -17.235 z" /><path
         inkscape:connector-curvature="0"
         id="path9081"
         style="fill:#231f20;fill-opacity:1;fill-rule:nonzero;stroke:none"
         d="m 144.882,-20.911 c -0.767,-0.314 -1.918,-0.58 -3.451,-0.799 -0.869,-0.126 -1.484,-0.268 -1.844,-0.424 -0.36,-0.156 -0.637,-0.386 -0.833,-0.687 -0.196,-0.302 -0.294,-0.637 -0.294,-1.006 0,-0.565 0.213,-1.034 0.639,-1.41 0.426,-0.377 1.049,-0.565 1.869,-0.565 0.813,0 1.535,0.178 2.168,0.535 0.633,0.357 1.098,0.844 1.395,1.463 0.226,0.479 0.34,1.184 0.34,2.117 z m 0.172,-4.719 c -0.786,-0.668 -1.541,-1.141 -2.263,-1.415 -0.723,-0.275 -1.499,-0.413 -2.327,-0.413 -1.367,0 -2.418,0.335 -3.152,1.005 -0.734,0.67 -1.102,1.526 -1.102,2.567 0,0.612 0.139,1.17 0.416,1.675 0.278,0.506 0.641,0.911 1.09,1.217 0.45,0.306 0.955,0.536 1.518,0.693 0.414,0.11 1.039,0.216 1.875,0.318 1.703,0.203 2.957,0.446 3.762,0.728 0.007,0.29 0.011,0.475 0.011,0.553 0,0.863 -0.199,1.471 -0.598,1.823 -0.539,0.479 -1.341,0.718 -2.404,0.718 -0.992,0 -1.725,-0.175 -2.198,-0.524 -0.474,-0.348 -0.823,-0.965 -1.05,-1.851 l -2.062,0.281 c 0.188,0.886 0.497,1.601 0.928,2.146 0.43,0.544 1.052,0.963 1.867,1.256 0.814,0.295 1.758,0.442 2.831,0.442 1.064,0 1.929,-0.125 2.596,-0.376 0.665,-0.251 1.154,-0.567 1.467,-0.946 0.314,-0.38 0.533,-0.861 0.658,-1.44 0.071,-0.361 0.106,-1.012 0.106,-1.951 v -2.822 c 0,-1.967 0.045,-3.211 0.136,-3.733 0.09,-0.52 0.268,-1.019 0.536,-1.498 h -2.203 c -0.227,0.442 -0.373,0.957 -0.438,1.547" /><path
         inkscape:connector-curvature="0"
         id="path9083"
         style="fill:#231f20;fill-opacity:1;fill-rule:nonzero;stroke:none"
         d="m 150.31,-27.177 v 12.485 h 1.89 v -1.775 c 0.916,1.37 2.24,2.056 3.97,2.056 0.752,0 1.444,-0.135 2.074,-0.405 0.631,-0.271 1.102,-0.625 1.415,-1.065 0.313,-0.438 0.533,-0.96 0.658,-1.563 0.078,-0.392 0.118,-1.077 0.118,-2.057 v -7.676 h -2.11 v 7.598 c 0,0.862 -0.082,1.507 -0.246,1.934 -0.165,0.427 -0.456,0.769 -0.875,1.023 -0.419,0.256 -0.911,0.383 -1.474,0.383 -0.9,0 -1.677,-0.286 -2.331,-0.859 -0.653,-0.572 -0.98,-1.658 -0.98,-3.257 v -6.822 z" /><path
         inkscape:connector-curvature="0"
         id="path9085"
         style="fill:#231f20;fill-opacity:1;fill-rule:nonzero;stroke:none"
         d="m 165.081,-20.948 c 0,-1.6 0.336,-2.795 1.009,-3.588 0.674,-0.791 1.469,-1.188 2.385,-1.188 0.924,0 1.709,0.378 2.356,1.135 0.645,0.757 0.968,1.911 0.968,3.464 0,1.71 -0.329,2.964 -0.986,3.765 -0.658,0.798 -1.469,1.199 -2.432,1.199 -0.94,0 -1.724,-0.385 -2.355,-1.152 -0.63,-0.77 -0.945,-1.981 -0.945,-3.635 m 6.687,-6.229 v 1.571 c -0.791,-1.235 -1.955,-1.852 -3.49,-1.852 -0.994,0 -1.909,0.274 -2.743,0.822 -0.834,0.549 -1.481,1.315 -1.939,2.299 -0.458,0.983 -0.687,2.113 -0.687,3.391 0,1.246 0.207,2.376 0.623,3.39 0.415,1.015 1.037,1.793 1.868,2.334 0.83,0.54 1.758,0.811 2.785,0.811 0.752,0 1.421,-0.158 2.009,-0.476 0.587,-0.317 1.065,-0.73 1.433,-1.239 v 6.184 h 2.11 v -17.235 z" /><path
         inkscape:connector-curvature="0"
         id="path9087"
         style="fill:#231f20;fill-opacity:1;fill-rule:nonzero;stroke:none"
         d="m 183.724,-27.177 v 12.485 h 1.89 v -1.895 c 0.487,0.886 0.937,1.471 1.349,1.752 0.413,0.283 0.867,0.424 1.362,0.424 0.715,0 1.441,-0.228 2.18,-0.682 l -0.74,-1.957 c -0.516,0.301 -1.033,0.451 -1.549,0.451 -0.461,0 -0.876,-0.138 -1.243,-0.417 -0.368,-0.278 -0.63,-0.664 -0.787,-1.158 -0.235,-0.752 -0.353,-1.575 -0.353,-2.468 v -6.535 z" /><path
         inkscape:connector-curvature="0"
         id="path9089"
         style="fill:#231f20;fill-opacity:1;fill-rule:nonzero;stroke:none"
         d="m 193.345,-19.739 h 6.968 c -0.094,1.052 -0.36,1.842 -0.799,2.368 -0.674,0.817 -1.547,1.225 -2.62,1.225 -0.972,0 -1.789,-0.326 -2.451,-0.978 -0.662,-0.651 -1.028,-1.523 -1.098,-2.615 m 6.945,-3.407 2.187,-0.281 c -0.345,-1.277 -0.982,-2.268 -1.914,-2.973 -0.933,-0.705 -2.123,-1.058 -3.571,-1.058 -1.825,0 -3.272,0.562 -4.341,1.687 -1.068,1.124 -1.603,2.701 -1.603,4.731 0,2.1 0.54,3.729 1.621,4.889 1.081,1.16 2.482,1.74 4.206,1.74 1.667,0 3.03,-0.568 4.087,-1.704 1.057,-1.136 1.586,-2.735 1.586,-4.794 0,-0.126 -0.004,-0.315 -0.012,-0.565 h -9.316 c 0.078,-1.373 0.466,-2.425 1.164,-3.155 0.699,-0.729 1.569,-1.095 2.612,-1.095 0.776,0 1.439,0.205 1.988,0.616 0.549,0.41 0.984,1.064 1.306,1.962" /><path
         inkscape:connector-curvature="0"
         id="path9091"
         style="fill:#231f20;fill-opacity:1;fill-rule:nonzero;stroke:none"
         d="m 205.1,-9.942 h 2.109 V -27.176 H 205.1 Z" /><path
         inkscape:connector-curvature="0"
         id="path9093"
         style="fill:#231f20;fill-opacity:1;fill-rule:nonzero;stroke:none"
         d="m 212.07,-19.739 h 6.969 c -0.094,1.052 -0.361,1.842 -0.799,2.368 -0.674,0.817 -1.547,1.225 -2.62,1.225 -0.972,0 -1.789,-0.326 -2.451,-0.978 -0.662,-0.651 -1.028,-1.523 -1.099,-2.615 m 6.946,-3.407 2.187,-0.281 c -0.345,-1.277 -0.983,-2.268 -1.915,-2.973 -0.932,-0.705 -2.122,-1.058 -3.571,-1.058 -1.824,0 -3.271,0.562 -4.341,1.687 -1.068,1.124 -1.603,2.701 -1.603,4.731 0,2.1 0.541,3.729 1.622,4.889 1.08,1.16 2.482,1.74 4.205,1.74 1.668,0 3.03,-0.568 4.088,-1.704 1.057,-1.136 1.585,-2.735 1.585,-4.794 0,-0.126 -0.003,-0.315 -0.011,-0.565 h -9.317 c 0.079,-1.373 0.467,-2.425 1.165,-3.155 0.698,-0.729 1.568,-1.095 2.612,-1.095 0.776,0 1.439,0.205 1.987,0.616 0.549,0.41 0.985,1.064 1.307,1.962" /><path
         inkscape:connector-curvature="0"
         id="path9095"
         style="fill:#231f20;fill-opacity:1;fill-rule:nonzero;stroke:none"
         d="m 231.826,-20.911 c -0.767,-0.314 -1.918,-0.58 -3.452,-0.799 -0.869,-0.126 -1.483,-0.268 -1.843,-0.424 -0.361,-0.156 -0.638,-0.386 -0.834,-0.687 -0.196,-0.302 -0.293,-0.637 -0.293,-1.006 0,-0.565 0.213,-1.034 0.638,-1.41 0.426,-0.377 1.049,-0.565 1.87,-0.565 0.812,0 1.535,0.178 2.168,0.535 0.632,0.357 1.097,0.844 1.394,1.463 0.227,0.479 0.34,1.184 0.34,2.117 z m 0.172,-4.719 c -0.787,-0.668 -1.541,-1.141 -2.264,-1.415 -0.723,-0.275 -1.498,-0.413 -2.326,-0.413 -1.367,0 -2.418,0.335 -3.153,1.005 -0.734,0.67 -1.101,1.526 -1.101,2.567 0,0.612 0.138,1.17 0.416,1.675 0.277,0.506 0.64,0.911 1.09,1.217 0.449,0.306 0.955,0.536 1.517,0.693 0.414,0.11 1.039,0.216 1.875,0.318 1.703,0.203 2.957,0.446 3.762,0.728 0.008,0.29 0.012,0.475 0.012,0.553 0,0.863 -0.2,1.471 -0.598,1.823 -0.54,0.479 -1.341,0.718 -2.404,0.718 -0.993,0 -1.726,-0.175 -2.199,-0.524 -0.473,-0.348 -0.823,-0.965 -1.049,-1.851 l -2.063,0.281 c 0.188,0.886 0.497,1.601 0.928,2.146 0.431,0.544 1.053,0.963 1.867,1.256 0.815,0.295 1.758,0.442 2.831,0.442 1.065,0 1.93,-0.125 2.596,-0.376 0.665,-0.251 1.155,-0.567 1.468,-0.946 0.313,-0.38 0.532,-0.861 0.658,-1.44 0.07,-0.361 0.105,-1.012 0.105,-1.951 v -2.822 c 0,-1.967 0.045,-3.211 0.136,-3.733 0.09,-0.52 0.269,-1.019 0.536,-1.498 h -2.203 c -0.227,0.442 -0.373,0.957 -0.437,1.547" /><path
         inkscape:connector-curvature="0"
         id="path9097"
         style="fill:#231f20;fill-opacity:1;fill-rule:nonzero;stroke:none"
         d="m 236.394,-23.442 2.093,0.328 c 0.118,-0.842 0.446,-1.489 0.983,-1.937 0.538,-0.448 1.289,-0.673 2.254,-0.673 0.974,0 1.695,0.199 2.166,0.595 0.471,0.397 0.707,0.861 0.707,1.396 0,0.479 -0.207,0.855 -0.621,1.13 -0.289,0.189 -1.01,0.428 -2.163,0.719 -1.554,0.392 -2.631,0.731 -3.23,1.016 -0.601,0.286 -1.056,0.681 -1.366,1.187 -0.309,0.505 -0.464,1.063 -0.464,1.674 0,0.557 0.127,1.071 0.382,1.545 0.255,0.475 0.602,0.868 1.04,1.182 0.329,0.242 0.779,0.448 1.347,0.616 0.568,0.169 1.178,0.253 1.828,0.253 0.98,0 1.84,-0.141 2.581,-0.423 0.74,-0.282 1.287,-0.664 1.64,-1.145 0.352,-0.482 0.596,-1.125 0.729,-1.932 l -2.063,-0.281 c -0.094,0.642 -0.366,1.144 -0.818,1.505 -0.451,0.361 -1.088,0.541 -1.912,0.541 -0.973,0 -1.668,-0.161 -2.084,-0.483 -0.416,-0.321 -0.623,-0.698 -0.623,-1.13 0,-0.275 0.086,-0.523 0.259,-0.742 0.172,-0.228 0.443,-0.417 0.812,-0.566 0.212,-0.079 0.836,-0.259 1.871,-0.541 1.499,-0.401 2.543,-0.728 3.133,-0.982 0.59,-0.255 1.053,-0.625 1.389,-1.11 0.336,-0.487 0.505,-1.089 0.505,-1.81 0,-0.705 -0.206,-1.369 -0.618,-1.992 -0.412,-0.622 -1.006,-1.104 -1.782,-1.445 -0.777,-0.341 -1.655,-0.511 -2.635,-0.511 -1.623,0 -2.86,0.338 -3.711,1.013 -0.852,0.674 -1.395,1.675 -1.629,3.003" /><path
         inkscape:connector-curvature="0"
         id="path9099"
         style="fill:#231f20;fill-opacity:1;fill-rule:nonzero;stroke:none"
         d="m 250.861,-19.739 h 6.969 c -0.094,1.052 -0.361,1.842 -0.799,2.368 -0.674,0.817 -1.548,1.225 -2.621,1.225 -0.972,0 -1.788,-0.326 -2.451,-0.978 -0.662,-0.651 -1.028,-1.523 -1.098,-2.615 m 6.945,-3.407 2.188,-0.281 c -0.345,-1.277 -0.984,-2.268 -1.915,-2.973 -0.932,-0.705 -2.122,-1.058 -3.572,-1.058 -1.824,0 -3.271,0.562 -4.34,1.687 -1.069,1.124 -1.603,2.701 -1.603,4.731 0,2.1 0.54,3.729 1.621,4.889 1.08,1.16 2.482,1.74 4.205,1.74 1.668,0 3.031,-0.568 4.088,-1.704 1.057,-1.136 1.586,-2.735 1.586,-4.794 0,-0.126 -0.004,-0.315 -0.012,-0.565 h -9.316 c 0.078,-1.373 0.467,-2.425 1.164,-3.155 0.698,-0.729 1.569,-1.095 2.612,-1.095 0.777,0 1.439,0.205 1.988,0.616 0.549,0.41 0.984,1.064 1.306,1.962" /><path
         inkscape:connector-curvature="0"
         id="path9101"
         style="fill:#231f20;fill-opacity:1;fill-rule:nonzero;stroke:none"
         d="m 264.053,-20.948 c 0,-1.6 0.337,-2.795 1.01,-3.588 0.674,-0.791 1.469,-1.188 2.385,-1.188 0.924,0 1.709,0.378 2.355,1.135 0.646,0.757 0.969,1.911 0.969,3.464 0,1.71 -0.329,2.964 -0.987,3.765 -0.658,0.798 -1.468,1.199 -2.431,1.199 -0.94,0 -1.725,-0.385 -2.355,-1.152 -0.63,-0.77 -0.946,-1.981 -0.946,-3.635 m 6.688,-6.229 v 1.571 c -0.791,-1.235 -1.954,-1.852 -3.49,-1.852 -0.995,0 -1.91,0.274 -2.744,0.822 -0.834,0.549 -1.48,1.315 -1.938,2.299 -0.458,0.983 -0.688,2.113 -0.688,3.391 0,1.246 0.208,2.376 0.623,3.39 0.415,1.015 1.038,1.793 1.869,2.334 0.83,0.54 1.757,0.811 2.785,0.811 0.752,0 1.422,-0.158 2.009,-0.476 0.586,-0.317 1.065,-0.73 1.433,-1.239 v 6.184 h 2.109 v -17.235 z" /><path
         inkscape:connector-curvature="0"
         id="path9103"
         style="fill:#231f20;fill-opacity:1;fill-rule:nonzero;stroke:none"
         d="m 282.728,-14.692 h 2.109 v -12.484 h -2.109 z m 0,4.75 h 2.109 v -2.438 h -2.109 z" /><path
         inkscape:connector-curvature="0"
         id="path9105"
         style="fill:#231f20;fill-opacity:1;fill-rule:nonzero;stroke:none"
         d="m 288.073,-27.177 v 12.485 h 1.89 v -1.775 c 0.916,1.37 2.24,2.056 3.971,2.056 0.751,0 1.442,-0.135 2.073,-0.405 0.63,-0.271 1.102,-0.625 1.415,-1.065 0.314,-0.438 0.533,-0.96 0.659,-1.563 0.078,-0.392 0.117,-1.077 0.117,-2.057 v -7.676 h -2.11 v 7.598 c 0,0.862 -0.082,1.507 -0.247,1.934 -0.164,0.427 -0.455,0.769 -0.874,1.023 -0.419,0.256 -0.91,0.383 -1.473,0.383 -0.901,0 -1.678,-0.286 -2.331,-0.859 -0.654,-0.572 -0.981,-1.658 -0.981,-3.257 v -6.822 z" /><path
         inkscape:connector-curvature="0"
         id="path9107"
         style="fill:#231f20;fill-opacity:1;fill-rule:nonzero;stroke:none"
         d="m 310.043,-21.007 c 0,-1.607 0.326,-2.796 0.975,-3.564 0.649,-0.769 1.436,-1.153 2.359,-1.153 0.939,0 1.744,0.399 2.413,1.194 0.668,0.797 1.003,2.029 1.003,3.699 0,1.592 -0.327,2.783 -0.98,3.576 -0.653,0.791 -1.435,1.188 -2.342,1.188 -0.899,0 -1.696,-0.422 -2.388,-1.265 -0.693,-0.843 -1.04,-2.067 -1.04,-3.675 m -1.906,-10.951 v 17.266 h 1.922 v -1.622 c 0.454,0.633 0.968,1.11 1.539,1.427 0.571,0.318 1.265,0.476 2.08,0.476 1.066,0 2.005,-0.275 2.82,-0.822 0.814,-0.549 1.429,-1.324 1.844,-2.323 0.415,-0.999 0.623,-2.093 0.623,-3.285 0,-1.277 -0.229,-2.427 -0.687,-3.449 -0.458,-1.023 -1.124,-1.807 -1.997,-2.352 -0.874,-0.544 -1.793,-0.816 -2.756,-0.816 -0.705,0 -1.338,0.148 -1.898,0.445 -0.56,0.297 -1.02,0.672 -1.38,1.125 v -6.07 z" /><path
         inkscape:connector-curvature="0"
         id="path9109"
         style="fill:#231f20;fill-opacity:1;fill-rule:nonzero;stroke:none"
         d="m 329.674,-27.177 v 1.841 c -0.968,-1.415 -2.285,-2.122 -3.949,-2.122 -0.734,0 -1.42,0.141 -2.057,0.423 -0.636,0.282 -1.109,0.637 -1.418,1.064 -0.308,0.427 -0.525,0.95 -0.65,1.57 -0.086,0.415 -0.129,1.073 -0.129,1.974 v 7.735 h 2.11 v -6.92 c 0,-1.105 0.043,-1.848 0.128,-2.233 0.133,-0.555 0.415,-0.992 0.845,-1.309 0.43,-0.318 0.961,-0.476 1.595,-0.476 0.633,0 1.227,0.162 1.782,0.487 0.555,0.326 0.947,0.768 1.179,1.328 0.23,0.56 0.346,1.373 0.346,2.438 v 6.685 h 2.108 v -12.485 z" /><path
         inkscape:connector-curvature="0"
         id="path9111"
         style="fill:#231f20;fill-opacity:1;fill-rule:nonzero;stroke:none"
         d="m 336.804,-20.841 c 0,-1.498 0.204,-2.58 0.612,-3.247 0.667,-1.091 1.569,-1.636 2.708,-1.636 0.926,0 1.727,0.403 2.401,1.206 0.675,0.804 1.013,2.002 1.013,3.595 0,1.632 -0.324,2.836 -0.972,3.612 -0.647,0.777 -1.43,1.165 -2.348,1.165 -0.926,0 -1.727,-0.402 -2.402,-1.206 -0.674,-0.803 -1.012,-1.966 -1.012,-3.489 m 0.031,-6.336 h -1.953 v 17.235 h 2.109 v -6.145 c 0.895,1.117 2.035,1.676 3.424,1.676 0.769,0 1.496,-0.154 2.183,-0.465 0.686,-0.309 1.251,-0.744 1.694,-1.305 0.443,-0.559 0.791,-1.235 1.041,-2.027 0.252,-0.791 0.377,-1.638 0.377,-2.539 0,-2.139 -0.529,-3.792 -1.589,-4.96 -1.059,-1.167 -2.331,-1.751 -3.813,-1.751 -1.476,0 -2.633,0.613 -3.473,1.84 z" /><path
         inkscape:connector-curvature="0"
         id="path9113"
         style="fill:#231f20;fill-opacity:1;fill-rule:nonzero;stroke:none"
         d="m 348.231,-9.942 h 2.109 v -17.234 h -2.109 z" /><path
         inkscape:connector-curvature="0"
         id="path9115"
         style="fill:#231f20;fill-opacity:1;fill-rule:nonzero;stroke:none"
         d="m 353.623,-14.692 h 2.109 v -12.484 h -2.109 z m 0,4.75 h 2.109 v -2.438 h -2.109 z" /><path
         inkscape:connector-curvature="0"
         id="path9117"
         style="fill:#231f20;fill-opacity:1;fill-rule:nonzero;stroke:none"
         d="m 367.109,-22.599 2.079,-0.281 c -0.228,-1.432 -0.81,-2.553 -1.747,-3.363 -0.936,-0.811 -2.087,-1.215 -3.45,-1.215 -1.709,0 -3.082,0.559 -4.121,1.675 -1.039,1.116 -1.557,2.717 -1.557,4.802 0,1.347 0.223,2.527 0.669,3.537 0.447,1.011 1.126,1.769 2.039,2.275 0.914,0.505 1.907,0.758 2.98,0.758 1.355,0 2.465,-0.344 3.326,-1.029 0.861,-0.687 1.414,-1.662 1.657,-2.924 l -2.062,-0.313 c -0.196,0.84 -0.542,1.472 -1.04,1.896 -0.497,0.424 -1.098,0.635 -1.803,0.635 -1.065,0 -1.931,-0.382 -2.596,-1.147 -0.666,-0.765 -0.999,-1.975 -0.999,-3.63 0,-1.679 0.322,-2.898 0.965,-3.659 0.644,-0.761 1.483,-1.142 2.519,-1.142 0.831,0 1.525,0.256 2.082,0.767 0.557,0.511 0.91,1.297 1.059,2.358" /><path
         inkscape:connector-curvature="0"
         id="path9119"
         style="fill:#231f20;fill-opacity:1;fill-rule:nonzero;stroke:none"
         d="m 379.073,-20.948 c 0,-1.6 0.337,-2.795 1.01,-3.588 0.674,-0.791 1.469,-1.188 2.385,-1.188 0.924,0 1.709,0.378 2.355,1.135 0.646,0.757 0.969,1.911 0.969,3.464 0,1.71 -0.329,2.964 -0.986,3.765 -0.659,0.798 -1.469,1.199 -2.432,1.199 -0.939,0 -1.725,-0.385 -2.355,-1.152 -0.63,-0.77 -0.946,-1.981 -0.946,-3.635 m 6.688,-6.229 v 1.571 c -0.791,-1.235 -1.955,-1.852 -3.49,-1.852 -0.995,0 -1.91,0.274 -2.744,0.822 -0.834,0.549 -1.48,1.315 -1.938,2.299 -0.459,0.983 -0.688,2.113 -0.688,3.391 0,1.246 0.207,2.376 0.623,3.39 0.415,1.015 1.038,1.793 1.869,2.334 0.83,0.54 1.758,0.811 2.784,0.811 0.752,0 1.422,-0.158 2.01,-0.476 0.587,-0.317 1.065,-0.73 1.433,-1.239 v 6.184 h 2.109 v -17.235 z" /><path
         inkscape:connector-curvature="0"
         id="path9121"
         style="fill:#231f20;fill-opacity:1;fill-rule:nonzero;stroke:none"
         d="m 392.438,-20.937 c 0,-1.599 0.348,-2.796 1.045,-3.593 0.698,-0.795 1.575,-1.194 2.632,-1.194 1.05,0 1.923,0.401 2.62,1.2 0.698,0.8 1.046,2.019 1.046,3.658 0,1.545 -0.35,2.715 -1.052,3.512 -0.701,0.794 -1.572,1.193 -2.614,1.193 -1.057,0 -1.934,-0.397 -2.632,-1.188 -0.697,-0.793 -1.045,-1.988 -1.045,-3.588 m -2.172,0.002 c 0,2.312 0.641,4.024 1.926,5.137 1.073,0.924 2.38,1.387 3.923,1.387 1.715,0 3.116,-0.563 4.205,-1.687 1.089,-1.125 1.633,-2.678 1.633,-4.661 0,-1.605 -0.241,-2.869 -0.723,-3.79 -0.481,-0.921 -1.182,-1.636 -2.102,-2.145 -0.92,-0.509 -1.924,-0.764 -3.013,-0.764 -1.746,0 -3.158,0.561 -4.234,1.681 -1.077,1.12 -1.615,2.735 -1.615,4.842" /><path
         inkscape:connector-curvature="0"
         id="path9123"
         style="fill:#231f20;fill-opacity:1;fill-rule:nonzero;stroke:none"
         d="m 404.436,-27.177 v 12.485 h 1.89 v -1.747 c 0.392,0.609 0.911,1.1 1.561,1.471 0.649,0.371 1.387,0.557 2.217,0.557 0.922,0 1.679,-0.192 2.27,-0.574 0.59,-0.384 1.007,-0.919 1.249,-1.607 0.988,1.454 2.275,2.181 3.859,2.181 1.24,0 2.193,-0.343 2.86,-1.028 0.667,-0.687 1,-1.743 1,-3.168 v -8.57 h -2.11 v 7.868 c 0,0.847 -0.068,1.456 -0.206,1.83 -0.136,0.372 -0.385,0.671 -0.746,0.899 -0.361,0.227 -0.785,0.341 -1.27,0.341 -0.879,0 -1.609,-0.292 -2.189,-0.876 -0.58,-0.585 -0.87,-1.52 -0.87,-2.806 v -7.256 h -2.109 v 8.115 c 0,0.941 -0.172,1.647 -0.517,2.117 -0.345,0.47 -0.908,0.706 -1.691,0.706 -0.595,0 -1.145,-0.157 -1.651,-0.471 -0.504,-0.313 -0.871,-0.772 -1.097,-1.376 -0.227,-0.603 -0.341,-1.474 -0.341,-2.61 v -6.481 z" /><path
         inkscape:connector-curvature="0"
         id="path9125"
         style="fill:#231f20;fill-opacity:1;fill-rule:nonzero;stroke:none"
         d="m 432.438,-20.911 c -0.767,-0.314 -1.918,-0.58 -3.453,-0.799 -0.868,-0.126 -1.482,-0.268 -1.842,-0.424 -0.361,-0.156 -0.638,-0.386 -0.833,-0.687 -0.197,-0.302 -0.294,-0.637 -0.294,-1.006 0,-0.565 0.213,-1.034 0.638,-1.41 0.426,-0.377 1.049,-0.565 1.869,-0.565 0.813,0 1.536,0.178 2.168,0.535 0.633,0.357 1.098,0.844 1.395,1.463 0.227,0.479 0.34,1.184 0.34,2.117 z m 0.171,-4.719 c -0.786,-0.668 -1.541,-1.141 -2.263,-1.415 -0.723,-0.275 -1.498,-0.413 -2.326,-0.413 -1.368,0 -2.418,0.335 -3.153,1.005 -0.734,0.67 -1.101,1.526 -1.101,2.567 0,0.612 0.138,1.17 0.416,1.675 0.277,0.506 0.64,0.911 1.089,1.217 0.45,0.306 0.956,0.536 1.518,0.693 0.414,0.11 1.039,0.216 1.875,0.318 1.703,0.203 2.957,0.446 3.762,0.728 0.008,0.29 0.012,0.475 0.012,0.553 0,0.863 -0.2,1.471 -0.599,1.823 -0.539,0.479 -1.34,0.718 -2.403,0.718 -0.994,0 -1.726,-0.175 -2.199,-0.524 -0.473,-0.348 -0.823,-0.965 -1.049,-1.851 l -2.063,0.281 c 0.188,0.886 0.497,1.601 0.928,2.146 0.43,0.544 1.052,0.963 1.867,1.256 0.814,0.295 1.759,0.442 2.831,0.442 1.064,0 1.93,-0.125 2.596,-0.376 0.665,-0.251 1.154,-0.567 1.467,-0.946 0.314,-0.38 0.533,-0.861 0.659,-1.44 0.07,-0.361 0.105,-1.012 0.105,-1.951 v -2.822 c 0,-1.967 0.045,-3.211 0.136,-3.733 0.09,-0.52 0.268,-1.019 0.536,-1.498 h -2.203 c -0.228,0.442 -0.373,0.957 -0.438,1.547" /><path
         inkscape:connector-curvature="0"
         id="path9127"
         style="fill:#231f20;fill-opacity:1;fill-rule:nonzero;stroke:none"
         d="m 437.865,-14.692 h 2.109 v -12.484 h -2.109 z m 0,4.75 h 2.109 v -2.438 h -2.109 z" /><path
         inkscape:connector-curvature="0"
         id="path9129"
         style="fill:#231f20;fill-opacity:1;fill-rule:nonzero;stroke:none"
         d="m 443.21,-27.177 v 12.485 h 1.891 v -1.775 c 0.916,1.37 2.239,2.056 3.97,2.056 0.752,0 1.443,-0.135 2.074,-0.405 0.629,-0.271 1.101,-0.625 1.415,-1.065 0.313,-0.438 0.532,-0.96 0.658,-1.563 0.078,-0.392 0.117,-1.077 0.117,-2.057 v -7.676 h -2.109 v 7.598 c 0,0.862 -0.082,1.507 -0.247,1.934 -0.165,0.427 -0.457,0.769 -0.875,1.023 -0.418,0.256 -0.91,0.383 -1.473,0.383 -0.901,0 -1.678,-0.286 -2.331,-0.859 -0.654,-0.572 -0.981,-1.658 -0.981,-3.257 v -6.822 z" /><path
         inkscape:connector-curvature="0"
         id="path9131"
         style="fill:#231f20;fill-opacity:1;fill-rule:nonzero;stroke:none"
         d="m 465.181,-20.841 c 0,-1.498 0.204,-2.58 0.612,-3.247 0.667,-1.091 1.569,-1.636 2.708,-1.636 0.926,0 1.727,0.403 2.401,1.206 0.675,0.804 1.013,2.002 1.013,3.595 0,1.632 -0.324,2.836 -0.972,3.612 -0.647,0.777 -1.43,1.165 -2.348,1.165 -0.926,0 -1.727,-0.402 -2.402,-1.206 -0.674,-0.803 -1.012,-1.966 -1.012,-3.489 m 0.031,-6.336 h -1.953 v 17.235 h 2.109 v -6.145 c 0.895,1.117 2.035,1.676 3.424,1.676 0.769,0 1.496,-0.154 2.183,-0.465 0.686,-0.309 1.251,-0.744 1.694,-1.305 0.443,-0.559 0.791,-1.235 1.041,-2.027 0.252,-0.791 0.377,-1.638 0.377,-2.539 0,-2.139 -0.529,-3.792 -1.589,-4.96 -1.06,-1.167 -2.331,-1.751 -3.813,-1.751 -1.476,0 -2.633,0.613 -3.473,1.84 z" /><path
         inkscape:connector-curvature="0"
         id="path9133"
         style="fill:#231f20;fill-opacity:1;fill-rule:nonzero;stroke:none"
         d="m 476.562,-31.979 -0.235,1.99 c 0.461,-0.125 0.864,-0.188 1.208,-0.188 0.47,0 0.845,0.078 1.126,0.235 0.281,0.157 0.513,0.377 0.693,0.658 0.132,0.212 0.347,0.736 0.645,1.574 0.039,0.118 0.102,0.29 0.188,0.518 l -4.75,12.5 h 2.28 l 2.602,-7.198 c 0.338,-0.912 0.64,-1.872 0.908,-2.879 0.244,0.941 0.535,1.873 0.873,2.797 l 2.665,7.28 h 2.114 l -4.733,-12.704 c -0.51,-1.369 -0.906,-2.31 -1.188,-2.827 -0.376,-0.695 -0.807,-1.205 -1.293,-1.53 -0.486,-0.324 -1.066,-0.486 -1.74,-0.486 -0.407,0 -0.862,0.086 -1.363,0.26" /><path
         inkscape:connector-curvature="0"
         id="path9135"
         style="fill:#231f20;fill-opacity:1;fill-rule:nonzero;stroke:none"
         d="m 495.744,-27.177 v 17.235 h 11.625 v -2.032 h -9.344 v -5.343 h 8.094 v -2.032 h -8.094 v -7.828 z" /><path
         inkscape:connector-curvature="0"
         id="path9137"
         style="fill:#231f20;fill-opacity:1;fill-rule:nonzero;stroke:none"
         d="m 510.034,-27.177 v 12.485 h 1.891 v -1.895 c 0.487,0.886 0.936,1.471 1.349,1.752 0.413,0.283 0.866,0.424 1.362,0.424 0.715,0 1.441,-0.228 2.179,-0.682 l -0.74,-1.957 c -0.515,0.301 -1.032,0.451 -1.549,0.451 -0.461,0 -0.875,-0.138 -1.243,-0.417 -0.367,-0.278 -0.63,-0.664 -0.786,-1.158 -0.236,-0.752 -0.353,-1.575 -0.353,-2.468 v -6.535 z" /><path
         inkscape:connector-curvature="0"
         id="path9139"
         style="fill:#231f20;fill-opacity:1;fill-rule:nonzero;stroke:none"
         d="m 519.655,-19.739 h 6.969 c -0.094,1.052 -0.36,1.842 -0.799,2.368 -0.674,0.817 -1.548,1.225 -2.621,1.225 -0.972,0 -1.788,-0.326 -2.45,-0.978 -0.662,-0.651 -1.028,-1.523 -1.099,-2.615 m 6.946,-3.407 2.187,-0.281 c -0.345,-1.277 -0.983,-2.268 -1.915,-2.973 -0.932,-0.705 -2.122,-1.058 -3.571,-1.058 -1.824,0 -3.272,0.562 -4.34,1.687 -1.069,1.124 -1.604,2.701 -1.604,4.731 0,2.1 0.54,3.729 1.621,4.889 1.081,1.16 2.483,1.74 4.206,1.74 1.668,0 3.031,-0.568 4.087,-1.704 1.057,-1.136 1.586,-2.735 1.586,-4.794 0,-0.126 -0.004,-0.315 -0.011,-0.565 h -9.317 c 0.078,-1.373 0.467,-2.425 1.164,-3.155 0.699,-0.729 1.57,-1.095 2.613,-1.095 0.776,0 1.438,0.205 1.988,0.616 0.549,0.41 0.983,1.064 1.306,1.962" /><path
         inkscape:connector-curvature="0"
         id="path9141"
         style="fill:#231f20;fill-opacity:1;fill-rule:nonzero;stroke:none"
         d="m 533.035,-19.739 h 6.969 c -0.095,1.052 -0.36,1.842 -0.799,2.368 -0.674,0.817 -1.548,1.225 -2.621,1.225 -0.972,0 -1.788,-0.326 -2.45,-0.978 -0.662,-0.651 -1.029,-1.523 -1.099,-2.615 m 6.945,-3.407 2.188,-0.281 c -0.345,-1.277 -0.983,-2.268 -1.915,-2.973 -0.932,-0.705 -2.122,-1.058 -3.57,-1.058 -1.826,0 -3.273,0.562 -4.341,1.687 -1.07,1.124 -1.604,2.701 -1.604,4.731 0,2.1 0.54,3.729 1.621,4.889 1.081,1.16 2.483,1.74 4.205,1.74 1.668,0 3.031,-0.568 4.088,-1.704 1.058,-1.136 1.586,-2.735 1.586,-4.794 0,-0.126 -0.004,-0.315 -0.011,-0.565 h -9.317 c 0.078,-1.373 0.467,-2.425 1.165,-3.155 0.697,-0.729 1.569,-1.095 2.612,-1.095 0.776,0 1.439,0.205 1.988,0.616 0.549,0.41 0.984,1.064 1.305,1.962" /><path
         inkscape:connector-curvature="0"
         id="path9143"
         style="fill:#231f20;fill-opacity:1;fill-rule:nonzero;stroke:none"
         d="m 544.338,-21.646 2.156,0.188 c 0.102,-0.864 0.338,-1.574 0.709,-2.128 0.371,-0.554 0.948,-1.002 1.73,-1.344 0.781,-0.341 1.661,-0.512 2.637,-0.512 0.868,0 1.634,0.129 2.298,0.388 0.664,0.26 1.158,0.616 1.484,1.068 0.324,0.451 0.486,0.944 0.486,1.476 0,0.541 -0.156,1.013 -0.468,1.417 -0.311,0.404 -0.828,0.742 -1.549,1.017 -0.462,0.18 -1.484,0.461 -3.066,0.842 -1.583,0.38 -2.692,0.739 -3.328,1.077 -0.824,0.431 -1.438,0.967 -1.842,1.607 -0.404,0.639 -0.606,1.356 -0.606,2.149 0,0.871 0.247,1.685 0.741,2.442 0.493,0.757 1.215,1.332 2.163,1.725 0.948,0.392 2.003,0.588 3.163,0.588 1.278,0 2.404,-0.205 3.381,-0.616 0.976,-0.411 1.726,-1.015 2.252,-1.813 0.525,-0.798 0.807,-1.701 0.846,-2.711 l -2.187,-0.172 c -0.118,1.087 -0.515,1.908 -1.192,2.464 -0.678,0.556 -1.68,0.833 -3.003,0.833 -1.38,0 -2.384,-0.253 -3.015,-0.759 -0.631,-0.507 -0.946,-1.116 -0.946,-1.83 0,-0.62 0.223,-1.13 0.67,-1.53 0.438,-0.401 1.585,-0.811 3.437,-1.23 1.853,-0.42 3.124,-0.786 3.814,-1.099 1.002,-0.462 1.743,-1.048 2.221,-1.757 0.478,-0.709 0.717,-1.526 0.717,-2.449 0,-0.917 -0.263,-1.781 -0.787,-2.591 -0.525,-0.812 -1.277,-1.442 -2.26,-1.892 -0.982,-0.45 -2.089,-0.676 -3.317,-0.676 -1.558,0 -2.864,0.228 -3.916,0.682 -1.053,0.454 -1.879,1.138 -2.478,2.051 -0.598,0.912 -0.914,1.944 -0.945,3.095" /><path
         inkscape:connector-curvature="0"
         id="path9145"
         style="fill:#231f20;fill-opacity:1;fill-rule:nonzero;stroke:none"
         d="m 566.063,-27.177 -6.666,17.235 h 2.472 l 4.478,-12.516 c 0.36,-1.003 0.662,-1.943 0.905,-2.82 0.267,0.939 0.576,1.88 0.929,2.82 l 4.657,12.516 h 2.331 l -6.748,-17.235 z" /><path
         inkscape:connector-curvature="0"
         id="path9147"
         style="fill:#231f20;fill-opacity:1;fill-rule:nonzero;stroke:none"
         d="m 585.26,-20.427 v 2.031 h 7.297 v -6.388 c -1.12,-0.893 -2.277,-1.565 -3.468,-2.014 -1.191,-0.451 -2.413,-0.676 -3.666,-0.676 -1.694,0 -3.231,0.363 -4.613,1.088 -1.384,0.725 -2.428,1.774 -3.133,3.146 -0.705,1.372 -1.058,2.905 -1.058,4.598 0,1.678 0.351,3.244 1.052,4.698 0.701,1.455 1.71,2.535 3.026,3.24 1.317,0.706 2.833,1.058 4.549,1.058 1.245,0 2.372,-0.202 3.379,-0.606 1.007,-0.404 1.796,-0.968 2.368,-1.689 0.572,-0.722 1.007,-1.664 1.305,-2.827 l -2.058,-0.563 c -0.259,0.878 -0.58,1.568 -0.965,2.071 -0.383,0.503 -0.932,0.906 -1.645,1.208 -0.714,0.302 -1.506,0.453 -2.376,0.453 -1.042,0 -1.944,-0.158 -2.704,-0.476 -0.761,-0.317 -1.375,-0.735 -1.841,-1.252 -0.466,-0.517 -0.829,-1.085 -1.088,-1.704 -0.438,-1.066 -0.658,-2.222 -0.658,-3.468 0,-1.536 0.265,-2.821 0.794,-3.855 0.529,-1.036 1.299,-1.803 2.31,-2.305 1.011,-0.501 2.085,-0.752 3.222,-0.752 0.988,0 1.952,0.189 2.894,0.568 0.94,0.38 1.653,0.784 2.139,1.215 v 3.201 z" /><path
         inkscape:connector-curvature="0"
         id="path9149"
         style="fill:#231f20;fill-opacity:1;fill-rule:nonzero;stroke:none"
         d="m 596.239,-24.771 h 2.406 v -2.406 h -2.406 z" /><path
         inkscape:connector-curvature="0"
         id="path9151"
         style="fill:#231f20;fill-opacity:1;fill-rule:nonzero;stroke:none"
         d="m 603.705,-20.937 c 0,-1.599 0.349,-2.796 1.046,-3.593 0.697,-0.795 1.574,-1.194 2.632,-1.194 1.05,0 1.923,0.401 2.62,1.2 0.697,0.8 1.046,2.019 1.046,3.658 0,1.545 -0.351,2.715 -1.052,3.512 -0.701,0.794 -1.572,1.193 -2.614,1.193 -1.058,0 -1.935,-0.397 -2.632,-1.188 -0.697,-0.793 -1.046,-1.988 -1.046,-3.588 m -2.172,0.002 c 0,2.312 0.642,4.024 1.927,5.137 1.072,0.924 2.38,1.387 3.923,1.387 1.715,0 3.116,-0.563 4.205,-1.687 1.089,-1.125 1.633,-2.678 1.633,-4.661 0,-1.605 -0.242,-2.869 -0.723,-3.79 -0.481,-0.921 -1.183,-1.636 -2.102,-2.145 -0.92,-0.509 -1.924,-0.764 -3.013,-0.764 -1.746,0 -3.158,0.561 -4.235,1.681 -1.077,1.12 -1.615,2.735 -1.615,4.842" /><path
         inkscape:connector-curvature="0"
         id="path9153"
         style="fill:#231f20;fill-opacity:1;fill-rule:nonzero;stroke:none"
         d="m 615.679,-27.177 v 12.485 h 1.89 v -1.895 c 0.488,0.886 0.937,1.471 1.35,1.752 0.412,0.283 0.865,0.424 1.361,0.424 0.715,0 1.442,-0.228 2.18,-0.682 l -0.74,-1.957 c -0.516,0.301 -1.032,0.451 -1.549,0.451 -0.461,0 -0.875,-0.138 -1.243,-0.417 -0.367,-0.278 -0.63,-0.664 -0.786,-1.158 -0.237,-0.752 -0.354,-1.575 -0.354,-2.468 v -6.535 z" /><path
         inkscape:connector-curvature="0"
         id="path9155"
         style="fill:#231f20;fill-opacity:1;fill-rule:nonzero;stroke:none"
         d="m 625.077,-20.712 c 0,-1.639 0.325,-2.834 0.975,-3.586 0.649,-0.753 1.463,-1.129 2.441,-1.129 0.971,0 1.784,0.374 2.442,1.123 0.658,0.748 0.986,1.922 0.986,3.522 0,1.528 -0.338,2.68 -1.016,3.457 -0.676,0.775 -1.492,1.164 -2.447,1.164 -0.939,0 -1.737,-0.383 -2.395,-1.147 -0.657,-0.764 -0.986,-1.899 -0.986,-3.404 m -1.75,-7.496 2.063,-0.313 c 0.086,-0.632 0.325,-1.093 0.715,-1.382 0.525,-0.391 1.241,-0.586 2.148,-0.586 0.977,0 1.732,0.196 2.265,0.588 0.531,0.392 0.891,0.941 1.079,1.647 0.109,0.432 0.16,1.337 0.152,2.718 -0.924,-1.094 -2.074,-1.641 -3.453,-1.641 -1.715,0 -3.042,0.619 -3.982,1.858 -0.939,1.238 -1.409,2.722 -1.409,4.455 0,1.191 0.216,2.29 0.647,3.297 0.43,1.006 1.055,1.785 1.874,2.333 0.818,0.548 1.78,0.823 2.884,0.823 1.472,0 2.687,-0.594 3.642,-1.781 v 1.5 h 1.953 v -10.789 c 0,-1.944 -0.197,-3.321 -0.593,-4.131 -0.396,-0.811 -1.023,-1.451 -1.88,-1.922 -0.859,-0.47 -1.914,-0.705 -3.168,-0.705 -1.489,0 -2.692,0.335 -3.609,1.005 -0.917,0.67 -1.359,1.678 -1.328,3.026" /></g><g
       id="g9846"><path
         inkscape:connector-curvature="0"
         id="path9157"
         style="fill:#231f20;fill-opacity:1;fill-rule:evenodd;stroke:none"
         d="m 368.724,421.7 c -7.752,-3.346 -20.128,-5.51 -34.069,-5.51 -13.944,0 -26.318,2.164 -34.071,5.51 0.898,-8.3 15.807,-14.906 34.071,-14.906 18.263,0 33.171,6.606 34.069,14.906 m 19.432,-31.581 c -12.177,-5.253 -31.607,-8.654 -53.501,-8.654 -21.894,0 -41.326,3.401 -53.502,8.654 1.41,-13.036 24.824,-23.405 53.502,-23.405 28.679,0 52.091,10.369 53.501,23.405 m 19.865,-24.265 c -1.918,0 -3.655,-1.749 -4.911,-4.573 0.121,0.028 0.241,0.042 0.365,0.042 1.924,0 3.483,-3.494 3.483,-7.808 0,-4.314 -1.559,-7.812 -3.483,-7.812 -0.874,0 -1.669,0.718 -2.283,1.906 0.57,-7.295 3.412,-12.836 6.829,-12.836 3.829,0 6.935,6.954 6.935,15.538 0,8.585 -3.106,15.543 -6.935,15.543 m -30.293,-17.818 c 6.065,-11.359 11.014,-11.925 15.661,-7.242 l -8.456,-88.647 17.726,79.982 c 2.215,-2.692 4.924,-4.278 7.851,-4.278 7.487,0 13.557,10.383 13.557,23.193 0,11.916 -5.253,21.733 -12.013,23.045 6.245,10.617 13.569,18.358 23.341,13.929 -27.374,25.878 -35.356,-45.675 -57.667,-39.982 m -116.443,17.818 c -3.828,0 -6.931,-6.958 -6.931,-15.543 0,-8.584 3.103,-15.538 6.931,-15.538 3.419,0 6.26,5.541 6.831,12.836 -0.613,-1.188 -1.409,-1.906 -2.283,-1.906 -1.923,0 -3.483,3.498 -3.483,7.812 0,4.314 1.56,7.808 3.483,7.808 0.124,0 0.245,-0.014 0.365,-0.042 -1.256,2.824 -2.993,4.573 -4.913,4.573 m 30.297,-17.818 c -22.313,-5.693 -30.297,65.86 -57.666,39.982 9.768,4.429 17.095,-3.312 23.339,-13.929 -6.761,-1.312 -12.013,-11.129 -12.013,-23.045 0,-12.81 6.071,-23.193 13.558,-23.193 2.927,0 5.635,1.586 7.849,4.278 l 17.726,-79.982 -8.454,88.647 c 4.644,-4.683 9.595,-4.117 15.661,7.242 m 43.073,-220.076 -4.37,-1.604 c -5.499,-2.021 -11.683,-1.588 -16.801,1.174 -5.116,2.761 -8.61,7.554 -9.488,13.021 -1.581,9.839 -9.843,17.565 -20.37,19.044 l 2.208,-2.586 c 5.238,-6.14 7.501,-14.039 6.248,-21.801 -1.487,-9.198 2.6,-18.319 10.426,-23.804 -2.832,-1.476 -5.591,-3.151 -8.264,-5.012 l -4.034,-2.817 c 11.896,0.529 23.804,0.529 35.701,0 l 8.744,-0.387 8.744,0.387 c 11.896,0.529 23.804,0.529 35.697,0 l -4.031,2.817 c -2.672,1.861 -5.431,3.536 -8.263,5.012 7.825,5.485 11.911,14.606 10.424,23.804 -1.253,7.762 1.011,15.661 6.247,21.801 l 2.21,2.586 c -10.525,-1.479 -18.79,-9.205 -20.371,-19.044 -0.878,-5.467 -4.37,-10.26 -9.49,-13.021 -5.116,-2.762 -11.3,-3.195 -16.8,-1.174 z m 0,-37.959 c 14.768,-4.612 30.781,-2.475 44.394,6.413 17.928,11.705 28.972,33.338 28.972,56.75 v 20.573 l -37.507,-4.952 c 2.616,10.644 7.578,20.362 14.419,28.247 l 3.332,3.839 c -16.195,0.458 -32.161,-4.381 -45.981,-13.931 l -7.629,-5.275 -7.628,5.275 c -13.824,9.55 -29.789,14.389 -45.983,13.931 l 3.331,-3.839 c 6.841,-7.885 11.801,-17.603 14.42,-28.247 l -37.51,4.952 v -20.573 c 0,-23.412 11.046,-45.045 28.973,-56.75 13.615,-8.888 29.628,-11.025 44.397,-6.413 m -140.831,324.72 -5.662,-1.304 c -18.207,-4.193 -40.007,-1.373 -56.545,7.319 -21.901,11.51 -50.769,15.245 -74.878,9.693 6.725,-5.058 13.897,-9.887 21.312,-14.322 l 5.425,0.387 c 19.365,1.374 38.808,-1.144 57.185,-7.404 l -9.357,1.211 c -13.424,1.737 -26.984,1.219 -40.137,-1.476 4.003,-2.055 8.041,-3.971 12.086,-5.725 11.396,2.933 23.19,4.101 34.973,3.454 l -7.276,-2.243 c -4.91,-1.513 -9.425,-3.8 -13.431,-6.699 32.137,-10.716 62.498,-9.228 76.305,17.109 m 281.66,0 5.662,-1.304 c 18.208,-4.193 40.007,-1.373 56.547,7.319 21.899,11.51 50.769,15.245 74.879,9.693 -6.727,-5.058 -13.9,-9.887 -21.314,-14.322 l -5.425,0.387 c -19.365,1.374 -38.81,-1.144 -57.186,-7.404 l 9.359,1.211 c 13.422,1.737 26.982,1.219 40.135,-1.476 -4.002,-2.055 -8.037,-3.971 -12.082,-5.725 -11.398,2.933 -23.194,4.101 -34.974,3.454 l 7.274,-2.243 c 4.909,-1.513 9.423,-3.8 13.431,-6.699 -32.139,-10.716 -62.498,-9.228 -76.306,17.109 m -351.615,33.478 c 24.58,-0.456 49.562,-4.934 74.027,-13.46 l 6.959,-2.426 c -4.054,14.485 -12.229,27.827 -24.032,38.184 -8.543,7.495 -20.265,10.231 -31.244,7.289 -10.978,-2.942 -19.763,-11.172 -23.414,-21.936 -0.856,-2.529 -1.623,-5.079 -2.296,-7.651 m 2.296,-64.868 c 3.274,-9.65 15.007,-17.664 22.674,-10.962 5.997,5.242 15.033,4.939 20.664,-0.691 5.634,-5.635 5.936,-14.669 0.693,-20.666 -30.999,-35.455 -89.504,-15.122 -98.621,31.084 -1.997,10.121 -3.557,20.307 -4.679,30.528 -3.423,2.008 -6.814,4.099 -10.17,6.278 l -19.78,12.844 c 9.082,3.842 18.422,7.011 27.954,9.51 -0.374,12.438 -0.104,24.891 0.808,37.307 4.658,-9.025 29.458,-26.669 48.317,-7.98 -16.709,-8.144 -43.435,12.606 -45.745,32.003 0.921,6.516 2.019,13.013 3.295,19.483 2.655,13.463 7.817,26.017 14.996,37.155 -8.178,-28.912 4.29,-67.076 41.515,-51.017 -41.345,-1.539 -37.231,50.098 -24.372,71.467 12.51,11.606 27.847,20.263 44.97,24.85 -20.598,-11.014 -30.742,-55.024 7.989,-75.355 -16.794,12.406 -17.539,66.384 12.369,78.749 20.063,1.371 40.01,-2.974 57.555,-12.339 -25.622,7.607 -55.409,-32.121 -32.219,-76.504 -4.703,35.909 29.381,68.144 57.705,57.534 1.58,-1.592 3.117,-3.236 4.605,-4.938 10.601,-12.124 20.002,-25.196 28.101,-39.029 -23.28,16.39 -47.723,-12.246 -46.547,-40.496 7.508,28.649 39.387,36.692 56.17,22.432 3.527,-7.312 6.708,-14.8 9.528,-22.436 l 2.135,-8.129 c 1.434,-5.452 0.934,-10.985 -1.294,-16.126 l -0.016,-0.035 c -0.062,-0.144 -0.124,-0.288 -0.191,-0.431 l -0.003,-0.007 -0.109,-0.235 -0.106,-0.223 -0.004,-0.011 -0.115,-0.234 -0.006,-0.011 -0.099,-0.201 -0.009,-0.022 -0.12,-0.231 -0.12,-0.233 -0.123,-0.232 -0.125,-0.231 -0.129,-0.229 -0.13,-0.23 -0.132,-0.229 v -0.002 l -0.133,-0.221 -0.003,-0.005 -0.137,-0.228 v -0.001 l -0.14,-0.225 -0.142,-0.226 -0.145,-0.226 -0.147,-0.226 -0.013,-0.019 -0.134,-0.203 -0.154,-0.223 -0.013,-0.02 -0.132,-0.19 -0.201,-0.284 -0.113,-0.158 -0.01,-0.013 -0.16,-0.22 -0.03,-0.04 -0.12,-0.162 -0.012,-0.017 -0.168,-0.218 -0.03,-0.036 -0.137,-0.182 -0.17,-0.217 -0.036,-0.046 -0.125,-0.155 -0.254,-0.31 -0.09,-0.107 -0.265,-0.316 -0.099,-0.117 c -0.093,-0.106 -0.184,-0.212 -0.279,-0.317 l -0.106,-0.119 -0.254,-0.282 -0.143,-0.156 -0.293,-0.314 -0.057,-0.061 c -0.103,-0.109 -0.207,-0.216 -0.313,-0.324 l -0.097,-0.101 c -0.116,-0.116 -0.229,-0.231 -0.347,-0.346 l -0.033,-0.033 -0.039,-0.039 -0.34,-0.329 -0.039,-0.039 -0.036,-0.035 c -0.119,-0.113 -0.241,-0.227 -0.362,-0.339 l -0.03,-0.03 -0.034,-0.03 c -0.13,-0.121 -0.262,-0.242 -0.397,-0.362 l -0.007,-0.007 -0.029,-0.026 c -0.134,-0.117 -0.267,-0.236 -0.402,-0.354 l -0.016,-0.013 -0.025,-0.023 c -0.13,-0.113 -0.261,-0.225 -0.393,-0.335 l -0.036,-0.032 -0.023,-0.019 c -0.122,-0.103 -0.246,-0.206 -0.372,-0.309 l -0.112,-0.093 c -0.143,-0.116 -0.287,-0.23 -0.432,-0.346 l -0.013,-0.011 c -0.146,-0.117 -0.295,-0.232 -0.445,-0.346 l -0.023,-0.019 -0.009,-0.008 c -0.147,-0.112 -0.293,-0.223 -0.443,-0.335 l -0.04,-0.029 -0.003,-0.004 -0.035,-0.023 c -0.152,-0.115 -0.307,-0.228 -0.462,-0.34 -10.76,-7.775 -26.148,-11.199 -41.1,-9.149 l 7.57,-3.225 c 0.193,-0.083 0.385,-0.162 0.578,-0.241 l 0.027,-0.013 0.057,-0.023 0.444,-0.177 0.109,-0.044 0.038,-0.015 c 0.187,-0.073 0.376,-0.147 0.565,-0.22 l 0.028,-0.008 c 0.196,-0.074 0.392,-0.148 0.589,-0.219 l 0.01,-0.004 0.006,-0.003 c 0.2,-0.072 0.4,-0.143 0.6,-0.212 l 0.017,-0.005 0.063,-0.023 c 0.177,-0.061 0.354,-0.122 0.532,-0.182 l 0.067,-0.021 c 0.182,-0.06 0.362,-0.119 0.543,-0.177 l 0.048,-0.016 0.008,-0.002 c 0.186,-0.059 0.373,-0.118 0.562,-0.175 l 0.062,-0.021 0.012,-0.002 0.064,-0.019 0.474,-0.143 0.199,-0.056 0.453,-0.129 0.186,-0.051 0.487,-0.132 0.043,-0.01 0.075,-0.021 0.466,-0.12 0.206,-0.051 0.429,-0.104 0.243,-0.057 0.339,-0.076 0.324,-0.074 0.238,-0.051 0.065,-0.015 0.41,-0.086 0.004,-0.001 0.238,-0.048 0.479,-0.094 0.241,-0.045 0.239,-0.045 0.241,-0.044 0.059,-0.009 0.423,-0.075 0.24,-0.04 0.028,-0.005 0.456,-0.071 0.242,-0.038 c 0.397,-0.06 0.796,-0.116 1.195,-0.168 l 0.033,-0.004 c 0.401,-0.051 0.801,-0.097 1.204,-0.141 9.086,-0.968 18.519,0.258 26.734,3.685 11.463,4.782 18.977,13.187 20.435,22.549 l 12.616,-2.581 12.616,2.581 c 1.456,-9.362 8.971,-17.767 20.433,-22.549 8.214,-3.427 17.648,-4.653 26.734,-3.685 0.403,0.044 0.805,0.09 1.207,0.141 l 0.031,0.004 c 0.4,0.052 0.799,0.108 1.195,0.168 l 0.242,0.038 0.456,0.071 0.028,0.005 0.242,0.04 0.421,0.075 0.059,0.009 0.24,0.044 0.24,0.045 0.24,0.045 0.481,0.094 0.237,0.048 0.004,0.001 0.411,0.086 0.061,0.015 0.24,0.051 0.326,0.074 0.335,0.076 0.248,0.057 0.427,0.104 0.205,0.051 0.467,0.12 0.075,0.021 0.044,0.01 0.488,0.132 0.184,0.051 0.451,0.129 0.2,0.056 c 0.157,0.047 0.317,0.094 0.474,0.143 l 0.067,0.019 0.01,0.002 0.061,0.021 0.565,0.175 0.006,0.002 0.047,0.016 c 0.181,0.058 0.363,0.117 0.544,0.177 l 0.064,0.021 c 0.179,0.06 0.359,0.121 0.536,0.182 l 0.063,0.023 0.014,0.005 c 0.202,0.069 0.403,0.14 0.602,0.212 l 0.005,0.003 0.011,0.004 c 0.197,0.071 0.393,0.145 0.587,0.219 l 0.029,0.008 c 0.19,0.073 0.38,0.147 0.565,0.22 l 0.039,0.015 0.109,0.044 0.445,0.177 0.056,0.023 0.029,0.013 c 0.191,0.079 0.384,0.158 0.578,0.241 l 7.566,3.225 c -14.949,-2.05 -30.338,1.374 -41.099,9.149 -0.155,0.112 -0.307,0.225 -0.462,0.34 l -0.033,0.023 -0.004,0.004 -0.041,0.029 -0.442,0.335 -0.008,0.008 -0.025,0.019 c -0.148,0.114 -0.299,0.229 -0.443,0.346 l -0.015,0.011 c -0.146,0.116 -0.289,0.231 -0.431,0.346 l -0.112,0.093 -0.371,0.309 -0.026,0.019 -0.036,0.032 c -0.13,0.11 -0.26,0.222 -0.392,0.335 l -0.024,0.023 -0.017,0.013 c -0.134,0.118 -0.269,0.235 -0.401,0.354 l -0.029,0.026 -0.007,0.007 c -0.133,0.12 -0.266,0.241 -0.397,0.362 l -0.034,0.03 -0.029,0.03 c -0.121,0.112 -0.244,0.226 -0.361,0.339 l -0.038,0.035 -0.04,0.039 -0.339,0.329 -0.04,0.039 -0.03,0.033 -0.347,0.346 -0.101,0.101 c -0.103,0.108 -0.209,0.215 -0.312,0.324 l -0.056,0.061 -0.293,0.314 -0.144,0.156 -0.254,0.282 -0.107,0.119 -0.275,0.317 -0.101,0.117 -0.266,0.316 -0.09,0.107 -0.253,0.31 -0.124,0.155 -0.035,0.046 -0.173,0.217 -0.138,0.182 -0.029,0.036 -0.165,0.218 -0.012,0.017 -0.12,0.162 -0.032,0.04 -0.16,0.22 -0.011,0.013 -0.113,0.158 -0.202,0.284 -0.131,0.19 -0.011,0.02 -0.152,0.223 -0.137,0.203 -0.012,0.019 -0.147,0.226 -0.145,0.226 -0.143,0.226 -0.138,0.225 -10e-4,0.001 -0.141,0.228 -10e-4,0.005 -0.131,0.221 v 0.002 l -0.133,0.229 -0.131,0.23 -0.127,0.229 -0.126,0.231 -0.122,0.232 -0.123,0.233 -0.117,0.231 -0.01,0.022 -0.1,0.201 -0.006,0.011 -0.114,0.234 -0.004,0.011 -0.105,0.223 -0.112,0.235 -10e-4,0.007 c -0.064,0.143 -0.13,0.287 -0.191,0.431 l -0.015,0.035 c -2.231,5.141 -2.728,10.675 -1.299,16.126 l 2.138,8.129 c 2.82,7.636 6.002,15.124 9.53,22.436 16.781,14.26 48.66,6.217 56.167,-22.432 1.177,28.25 -23.267,56.886 -46.544,40.496 8.097,13.833 17.499,26.905 28.097,39.029 1.488,1.702 3.03,3.346 4.609,4.938 28.322,10.61 62.407,-21.625 57.705,-57.534 23.187,44.383 -6.599,84.111 -32.222,76.504 17.548,9.365 37.492,13.71 57.558,12.339 29.91,-12.365 29.163,-66.343 12.367,-78.749 38.729,20.331 28.589,64.341 7.991,75.355 17.122,-4.587 32.458,-13.244 44.968,-24.85 12.861,-21.369 16.973,-73.006 -24.37,-71.467 37.223,-16.059 49.693,22.105 41.513,51.017 7.18,-11.138 12.341,-23.692 14.998,-37.155 1.276,-6.47 2.374,-12.967 3.294,-19.483 -2.311,-19.397 -29.037,-40.147 -45.743,-32.003 18.86,-18.689 43.657,-1.045 48.316,7.98 0.911,-12.416 1.18,-24.869 0.808,-37.307 9.532,-2.499 18.87,-5.668 27.954,-9.51 l -19.781,-12.844 c -3.355,-2.179 -6.749,-4.27 -10.169,-6.278 -1.123,-10.221 -2.684,-20.407 -4.679,-30.528 -9.118,-46.206 -67.623,-66.539 -98.624,-31.084 -5.244,5.997 -4.94,15.031 0.694,20.666 5.633,5.63 14.668,5.933 20.663,0.691 7.667,-6.702 19.403,1.312 22.677,10.962 0.49,1.444 0.948,2.897 1.376,4.355 -20.793,-5.967 -42.04,-9.035 -63.128,-9.049 v -72.915 c 0,-13.822 -6.525,-26.595 -17.111,-33.504 -28.757,-18.78 -46.474,-53.481 -46.474,-91.037 v -41.602 c 0,-27.29 -12.875,-52.513 -33.775,-66.158 -15.013,-9.805 -32.044,-14.965 -49.378,-14.965 -17.336,0 -34.365,5.16 -49.379,14.965 -20.901,13.645 -33.776,38.868 -33.776,66.158 v 41.602 c 0,37.556 -17.715,72.257 -46.475,91.037 -10.586,6.909 -17.108,19.682 -17.108,33.504 v 72.915 c -21.091,0.014 -42.334,3.082 -63.132,9.049 0.431,-1.46 0.89,-2.911 1.38,-4.355 m 338.287,48.982 6.96,2.426 c 24.467,8.526 49.448,13.004 74.028,13.46 -0.674,2.572 -1.437,5.122 -2.295,7.651 -3.653,10.764 -12.436,18.994 -23.417,21.936 -10.978,2.942 -22.701,0.206 -31.244,-7.289 -11.801,-10.357 -19.976,-23.699 -24.032,-38.184" /></g></g></svg>